<?xml version="1.0" encoding="utf-8"?>
<!-- Generator: Adobe Illustrator 20.1.0, SVG Export Plug-In . SVG Version: 6.00 Build 0)  -->
<svg version="1.1" id="Calque_1" xmlns="http://www.w3.org/2000/svg" xmlns:xlink="http://www.w3.org/1999/xlink" x="0px" y="0px"
	 width="60px" height="60px" viewBox="0 0 60 60" style="enable-background:new 0 0 60 60;" xml:space="preserve">
<path style="fill:#FFEE55;" d="M18.9,54.4c22.6,0,35-18.8,35-35c0-0.5,0-1.1,0-1.6c2.4-1.7,4.5-3.9,6.1-6.4c-2.2,1-4.6,1.6-7.1,1.9
	c2.6-1.5,4.5-4,5.4-6.8c-2.4,1.4-5.1,2.4-7.8,3c-4.7-5-12.5-5.2-17.4-0.5c-3.2,3-4.6,7.5-3.6,11.8c-9.9-0.5-19.1-5.2-25.4-12.9
	C0.9,13.5,2.6,20.7,8,24.3c-2-0.1-3.9-0.6-5.6-1.5c0,0.1,0,0.1,0,0.2c0,5.9,4.1,10.9,9.9,12.1c-1.8,0.5-3.7,0.6-5.6,0.2
	c1.6,5,6.2,8.4,11.5,8.5C13.9,47.2,8.5,49,2.9,49C2,49,1,49,0,48.8C5.6,52.5,12.2,54.4,18.9,54.4"/>
</svg>
