<?xml version="1.0" encoding="utf-8"?>
<!-- Generator: Adobe Illustrator 20.1.0, SVG Export Plug-In . SVG Version: 6.00 Build 0)  -->
<svg version="1.1" xmlns="http://www.w3.org/2000/svg" xmlns:xlink="http://www.w3.org/1999/xlink" x="0px" y="0px" width="60px"
	 height="60px" viewBox="0 0 60 60" style="enable-background:new 0 0 60 60;" xml:space="preserve">
<g id="Calque_2">
</g>
<g id="Calque_1">
	<g>
		<path style="opacity:0.25;" d="M38.9,43.3c0.7,0,1.5-0.1,2.2-0.3V30.3h9.6V19.2h-5.9v6.1h-9.6v14C35.3,42.8,37.3,43.3,38.9,43.3z
			 M41.2,6.1h-5.9v8.1h5.9V6.1z M49.8,46.9c-1.1,0.6-2.5,1.1-3.8,1.3l1,2.9c-1.8,2.3-6.2,3.9-10.2,4c-0.1,0-0.3,0-0.4,0c0,0,0,0,0,0
			c-2.8,0-5.1-0.5-7.1-1.3c2.3,3.5,6.3,6.3,13,6.3c0,0,0,0,0,0c0.1,0,0.3,0,0.4,0c4-0.1,8.4-1.7,10.2-4L49.8,46.9z"/>
		<path style="fill:#FFEE55;" d="M34.6,56.2c5.6,0,11.2-2,13-4.4l0.4-0.5l-3.5-10.3c0-0.1-0.1-0.2-0.2-0.2h-0.7h-0.3l-6.8,0
			c-0.1,0-0.2-0.1-0.2-0.2c-0.1-0.3-0.1-0.8-0.2-1.3V26.7c0-0.1,0.1-0.2,0.2-0.2h9.2c0.1,0,0.2-0.1,0.2-0.2V13.3
			c0-0.1-0.1-0.2-0.2-0.2h-9.1c-0.1,0-0.2-0.1-0.2-0.2V0.2C36.1,0.1,36,0,35.9,0h-7.1h-2.5h-6.4c-1.1,0-2.5,0.8-2.7,2.4
			c-0.8,6.5-3.8,10.4-9.4,12.3l-0.6,0.2c-0.1,0-0.2,0.1-0.2,0.2v11.1c0,0.1,0.1,0.2,0.2,0.2h4.4h0h1.4c0,0,0,10.4,0,13.7
			C13.1,51,20.6,56.2,34.6,56.2z M45.3,50.9c-1.8,1.7-5.4,2.9-8.8,3c-0.1,0-0.3,0-0.4,0h0c-11.3,0-14.4-8.7-14.4-13.8V24.4
			c0-0.1-0.1-0.2-0.2-0.2H16c-0.1,0-0.2-0.1-0.2-0.2v-7.2c0-0.1,0.1-0.2,0.1-0.2c5.9-2.3,9.1-6.8,10-13.8c0-0.4,0.4-0.4,0.4-0.4h7.3
			c0.1,0,0.2,0.1,0.2,0.2v12.6c0,0.1,0.1,0.2,0.2,0.2h9.1c0.1,0,0.2,0.1,0.2,0.2v8.3c0,0.1-0.1,0.2-0.2,0.2H34
			c-0.1,0-0.2,0.1-0.2,0.2l0,14.9c0.1,3.4,1.7,5.1,4.8,5.1c1.3,0,2.7-0.3,4.1-0.8c0.1,0,0.3,0,0.3,0.1l2.3,6.9
			C45.4,50.7,45.4,50.8,45.3,50.9z"/>
	</g>
</g>
</svg>
