<?xml version="1.0" encoding="utf-8"?>
<!-- Generator: Adobe Illustrator 20.1.0, SVG Export Plug-In . SVG Version: 6.00 Build 0)  -->
<svg version="1.1" id="Calque_1" xmlns="http://www.w3.org/2000/svg" xmlns:xlink="http://www.w3.org/1999/xlink" x="0px" y="0px"
	 width="60px" height="60px" viewBox="0 0 60 60" style="enable-background:new 0 0 60 60;" xml:space="preserve">
<g>
	<path style="fill-rule:evenodd;clip-rule:evenodd;fill:#FFEE55;" d="M12.6,28.2l11.7,5.7c2.2,1.1,1.9,4.4-0.5,5L11.1,42
		c-1.6,0.4-3.1-0.7-3.3-2.3c-0.4-3.4,0-6.8,1.1-10C9.4,28.2,11.1,27.5,12.6,28.2z"/>
	<path style="fill-rule:evenodd;clip-rule:evenodd;fill:#FFEE55;" d="M17.2,52.2l8.7-9.7c1.7-1.9,4.8-0.6,4.7,1.9l-0.5,13
		C30.1,59,28.6,60.2,27,60c-3.4-0.6-6.5-1.9-9.3-3.8C16.4,55.3,16.2,53.4,17.2,52.2z"/>
	<path style="fill-rule:evenodd;clip-rule:evenodd;fill:#FFEE55;" d="M37.8,39.4l12.4,4c1.5,0.5,2.3,2.2,1.6,3.7
		c-1.4,3-3.6,5.7-6.2,7.9c-1.2,1-3.1,0.7-4-0.6l-6.9-11C33.4,41.2,35.5,38.6,37.8,39.4z"/>
	<path style="fill-rule:evenodd;clip-rule:evenodd;fill:#FFEE55;" d="M50.4,31.5l-12.5,3.6c-2.4,0.7-4.4-2-3-4.1l7.3-10.8
		c0.9-1.3,2.8-1.6,4-0.5c2.5,2.2,4.5,4.9,5.9,8.1C52.8,29.3,52,31,50.4,31.5z"/>
	<path style="fill-rule:evenodd;clip-rule:evenodd;fill:#FFEE55;" d="M21.2,1.2c-2.2,0.6-4.4,1.4-6.4,2.4c-1.4,0.7-1.9,2.4-1.2,3.8
		l12.2,21.1c1.4,2.4,5,1.4,5-1.3V2.7c0-1.6-1.3-2.8-2.9-2.7C25.7,0.2,23.5,0.6,21.2,1.2z"/>
</g>
</svg>
