<?xml version="1.0" encoding="utf-8"?>
<!-- Generator: Adobe Illustrator 20.1.0, SVG Export Plug-In . SVG Version: 6.00 Build 0)  -->
<svg version="1.1" id="Calque_1" xmlns="http://www.w3.org/2000/svg" xmlns:xlink="http://www.w3.org/1999/xlink" x="0px" y="0px"
	 width="60px" height="60px" viewBox="0 0 60 60" style="enable-background:new 0 0 60 60;" xml:space="preserve">
<g>
	<defs>
		<path id="SVGID_1_" d="M20,30c0-5.5,4.5-10,10-10c5.5,0,10,4.5,10,10c0,5.5-4.5,10-10,10C24.5,40,20,35.5,20,30 M14.6,30
			c0,8.5,6.9,15.4,15.4,15.4c8.5,0,15.4-6.9,15.4-15.4S38.5,14.6,30,14.6C21.5,14.6,14.6,21.5,14.6,30 M42.4,14c0,2,1.6,3.6,3.6,3.6
			s3.6-1.6,3.6-3.6c0-2-1.6-3.6-3.6-3.6S42.4,12,42.4,14 M17.9,54.4c-2.9-0.1-4.5-0.6-5.6-1c-1.4-0.5-2.4-1.2-3.4-2.2
			c-1.1-1-1.7-2-2.2-3.4c-0.4-1.1-0.9-2.6-1-5.6C5.4,39,5.4,38,5.4,30c0-8,0-9,0.2-12.1c0.1-2.9,0.6-4.5,1-5.6
			c0.5-1.4,1.2-2.4,2.2-3.4c1.1-1,2-1.7,3.4-2.2c1.1-0.4,2.6-0.9,5.6-1C21,5.4,22,5.4,30,5.4c8,0,9,0,12.1,0.2
			c2.9,0.1,4.5,0.6,5.6,1c1.4,0.5,2.4,1.2,3.4,2.2c1.1,1,1.7,2,2.2,3.4c0.4,1.1,0.9,2.6,1,5.6C54.6,21,54.6,22,54.6,30
			c0,8,0,9-0.2,12.1c-0.1,2.9-0.6,4.5-1,5.6c-0.5,1.4-1.2,2.4-2.2,3.4c-1.1,1.1-2,1.7-3.4,2.2c-1.1,0.4-2.6,0.9-5.6,1
			C39,54.6,38,54.6,30,54.6C22,54.6,21,54.6,17.9,54.4 M17.6,0.2c-3.2,0.1-5.4,0.7-7.3,1.4C8.4,2.3,6.7,3.4,5,5
			c-1.7,1.7-2.7,3.3-3.5,5.3c-0.7,1.9-1.2,4.1-1.4,7.3C0,20.8,0,21.9,0,30s0,9.2,0.2,12.4c0.1,3.2,0.7,5.4,1.4,7.3
			c0.8,2,1.8,3.6,3.5,5.3c1.7,1.7,3.3,2.7,5.3,3.5c1.9,0.7,4.1,1.2,7.3,1.4C20.8,60,21.9,60,30,60c8.1,0,9.2,0,12.4-0.2
			c3.2-0.1,5.4-0.7,7.3-1.4c2-0.8,3.6-1.8,5.3-3.5c1.7-1.7,2.7-3.3,3.5-5.3c0.7-1.9,1.2-4.1,1.4-7.3C60,39.2,60,38.1,60,30
			s0-9.2-0.2-12.4c-0.1-3.2-0.7-5.4-1.4-7.3c-0.8-2-1.8-3.6-3.5-5.3c-1.7-1.7-3.3-2.7-5.3-3.5c-1.9-0.7-4.1-1.2-7.3-1.4
			C39.2,0,38.1,0,30,0C21.9,0,20.8,0,17.6,0.2"/>
	</defs>
	<use xlink:href="#SVGID_1_"  style="overflow:visible;fill:#FFEE55;"/>
	<clipPath id="SVGID_2_">
		<use xlink:href="#SVGID_1_"  style="overflow:visible;"/>
	</clipPath>
</g>
</svg>
